<svg xmlns="http://www.w3.org/2000/svg" viewBox="0 0 980 395" role="img" aria-labelledby="title desc">
  <title id="title">IEEE Robotics and Automation Society Technical Committee on Robot Learning</title>
  <desc id="desc">Temporary vector lockup for the Robot Learning Technical Committee.</desc>
  <rect width="980" height="395" fill="none"/>
  <g transform="translate(32 20)">
    <ellipse cx="140" cy="132" rx="118" ry="64" fill="none" stroke="#6f1a7a" stroke-width="28" transform="rotate(-35 140 132)"/>
    <path d="M88 111c53-34 106-32 139 1l-82 54c-16-25-35-43-57-55Z" fill="#b20a3d"/>
    <path d="M224 58c54-34 119-45 166-28 39 14 58 45 52 82-4 23-19 48-43 70l-4-71-84 131-45-31 76-119c-32-4-72 6-118 31l-24-65Z" fill="#6f1a7a"/>
    <path d="M171 174l70 92-53-2-80-83 63-7Z" fill="#b20a3d"/>
    <text x="465" y="58" fill="#b20a3d" font-family="Arial, Helvetica, sans-serif" font-size="54" font-style="italic" font-weight="800">IEEE</text>
    <text x="465" y="116" fill="#b20a3d" font-family="Arial, Helvetica, sans-serif" font-size="54" font-style="italic" font-weight="800">Robotics &amp;</text>
    <text x="465" y="174" fill="#b20a3d" font-family="Arial, Helvetica, sans-serif" font-size="54" font-style="italic" font-weight="800">Automation</text>
    <text x="465" y="232" fill="#b20a3d" font-family="Arial, Helvetica, sans-serif" font-size="54" font-style="italic" font-weight="800">Society</text>
    <text x="28" y="294" fill="#6f1a7a" font-family="Arial, Helvetica, sans-serif" font-size="32" font-weight="800">Technical Committee on</text>
    <text x="28" y="350" fill="#6f1a7a" font-family="Arial, Helvetica, sans-serif" font-size="64" font-weight="900">Robot Learning</text>
  </g>
</svg>
